<?xml version="1.0" encoding="UTF-8" standalone="no"?>
<!DOCTYPE svg PUBLIC "-//W3C//DTD SVG 1.1//EN"
 "http://www.w3.org/Graphics/SVG/1.1/DTD/svg11.dtd">
<!-- Generated by graphviz version 2.40.1 (20161225.0304)
 -->
<!-- Title: G Pages: 1 -->
<svg width="1145pt" height="830pt"
 viewBox="0.00 0.00 1144.54 830.00" xmlns="http://www.w3.org/2000/svg" xmlns:xlink="http://www.w3.org/1999/xlink">
<g id="graph0" class="graph" transform="scale(1 1) rotate(0) translate(4 826)">
<title>G</title>
<polygon fill="#ffffff" stroke="transparent" points="-4,4 -4,-826 1140.5355,-826 1140.5355,4 -4,4"/>
<!-- A0 -->
<g id="node1" class="node">
<title>A0</title>
<polygon fill="#fff8dc" stroke="#000000" points="813.2512,-778 660.7488,-778 660.7488,-650 819.2512,-650 819.2512,-772 813.2512,-778"/>
<polyline fill="none" stroke="#000000" points="813.2512,-778 813.2512,-772 "/>
<polyline fill="none" stroke="#000000" points="819.2512,-772 813.2512,-772 "/>
<text text-anchor="middle" x="740" y="-765" font-family="Helvetica,sans-Serif" font-size="10.00" fill="#000000">화면을 구성하는 틀.</text>
<text text-anchor="middle" x="740" y="-753" font-family="Helvetica,sans-Serif" font-size="10.00" fill="#000000"> Object의</text>
<text text-anchor="middle" x="740" y="-741" font-family="Helvetica,sans-Serif" font-size="10.00" fill="#000000">position값들은 frame</text>
<text text-anchor="middle" x="740" y="-729" font-family="Helvetica,sans-Serif" font-size="10.00" fill="#000000">내부의 opengl 좌표계로</text>
<text text-anchor="middle" x="740" y="-717" font-family="Helvetica,sans-Serif" font-size="10.00" fill="#000000">결정된다.</text>
<text text-anchor="middle" x="740" y="-705" font-family="Helvetica,sans-Serif" font-size="10.00" fill="#000000"> child frame의</text>
<text text-anchor="middle" x="740" y="-693" font-family="Helvetica,sans-Serif" font-size="10.00" fill="#000000">좌표도 상대 좌표로 결정되며,</text>
<text text-anchor="middle" x="740" y="-681" font-family="Helvetica,sans-Serif" font-size="10.00" fill="#000000">child frame은 항상</text>
<text text-anchor="middle" x="740" y="-669" font-family="Helvetica,sans-Serif" font-size="10.00" fill="#000000">parent frame 위에</text>
<text text-anchor="middle" x="740" y="-657" font-family="Helvetica,sans-Serif" font-size="10.00" fill="#000000">그려진다.</text>
</g>
<!-- A1 -->
<g id="node2" class="node">
<title>A1</title>
<polygon fill="none" stroke="#000000" points="837,-778 837,-822 931,-822 931,-778 837,-778"/>
<text text-anchor="start" x="858.99" y="-803" font-family="Helvetica,sans-Serif" font-size="10.00" fill="#000000">&lt;&lt;virtual&gt;&gt;</text>
<text text-anchor="start" x="858.164" y="-791" font-family="Helvetica,sans-Serif" font-size="10.00" fill="#000000">BaseFrame</text>
<polygon fill="none" stroke="#000000" points="837,-710 837,-778 931,-778 931,-710 837,-710"/>
<text text-anchor="start" x="863.994" y="-759" font-family="Helvetica,sans-Serif" font-size="10.00" fill="#000000">#position</text>
<text text-anchor="start" x="858.1585" y="-747" font-family="Helvetica,sans-Serif" font-size="10.00" fill="#000000">#coordspec</text>
<text text-anchor="start" x="855.665" y="-735" font-family="Helvetica,sans-Serif" font-size="10.00" fill="#000000">#childframes</text>
<text text-anchor="start" x="855.105" y="-723" font-family="Helvetica,sans-Serif" font-size="10.00" fill="#000000">#childobjects</text>
<polygon fill="none" stroke="#000000" points="837,-606 837,-710 931,-710 931,-606 837,-606"/>
<text text-anchor="start" x="846.783" y="-691" font-family="Helvetica,sans-Serif" font-size="10.00" fill="#000000">registerFrame() :</text>
<text text-anchor="start" x="874.8315" y="-679" font-family="Helvetica,sans-Serif" font-size="10.00" fill="#000000">void</text>
<text text-anchor="start" x="846.778" y="-655" font-family="Helvetica,sans-Serif" font-size="10.00" fill="#000000">registerObject() :</text>
<text text-anchor="start" x="873.442" y="-643" font-family="Helvetica,sans-Serif" font-size="10.00" fill="#000000">void </text>
<text text-anchor="start" x="849.697" y="-631" font-family="Helvetica,sans-Serif" font-size="10.00" fill="#000000">+drawFrame() :</text>
<text text-anchor="start" x="874.8315" y="-619" font-family="Helvetica,sans-Serif" font-size="10.00" fill="#000000">void</text>
</g>
<!-- A3 -->
<g id="node4" class="node">
<title>A3</title>
<polygon fill="none" stroke="#000000" points="663,-512 663,-556 835,-556 835,-512 663,-512"/>
<text text-anchor="start" x="723.99" y="-537" font-family="Helvetica,sans-Serif" font-size="10.00" fill="#000000">&lt;&lt;virtual&gt;&gt;</text>
<text text-anchor="start" x="723.159" y="-525" font-family="Helvetica,sans-Serif" font-size="10.00" fill="#000000">BaseObject</text>
<polygon fill="none" stroke="#000000" points="663,-432 663,-512 835,-512 835,-432 663,-432"/>
<text text-anchor="start" x="730.109" y="-493" font-family="Helvetica,sans-Serif" font-size="10.00" fill="#000000">&#45;position</text>
<text text-anchor="start" x="729.559" y="-481" font-family="Helvetica,sans-Serif" font-size="10.00" fill="#000000">&#45;collision</text>
<text text-anchor="start" x="736.773" y="-469" font-family="Helvetica,sans-Serif" font-size="10.00" fill="#000000">: bool</text>
<text text-anchor="start" x="733.7185" y="-457" font-family="Helvetica,sans-Serif" font-size="10.00" fill="#000000">&#45;state :</text>
<text text-anchor="start" x="728.7135" y="-445" font-family="Helvetica,sans-Serif" font-size="10.00" fill="#000000">PhyState</text>
<polygon fill="none" stroke="#000000" points="663,-376 663,-432 835,-432 835,-376 663,-376"/>
<text text-anchor="start" x="682.1725" y="-413" font-family="Helvetica,sans-Serif" font-size="10.00" fill="#000000">+setPhyState(PhyState) : void</text>
<text text-anchor="start" x="704.134" y="-401" font-family="Helvetica,sans-Serif" font-size="10.00" fill="#000000">+drawObject() : void</text>
<text text-anchor="start" x="672.7355" y="-389" font-family="Helvetica,sans-Serif" font-size="10.00" fill="#000000">+moveObject(float* position) : void</text>
</g>
<!-- A1&#45;&gt;A3 -->
<g id="edge1" class="edge">
<title>A1&#45;&gt;A3</title>
<path fill="none" stroke="#000000" d="M831.1632,-611.8668C830.1028,-609.8931 829.0477,-607.9359 828,-606 819.2332,-589.8007 809.7359,-572.6487 800.4674,-556.112"/>
<polygon fill="#000000" stroke="#000000" points="831.2158,-611.9654 837.5709,-615.3732 836.8695,-622.5501 830.5144,-619.1423 831.2158,-611.9654"/>
</g>
<!-- A19 -->
<g id="node20" class="node">
<title>A19</title>
<polygon fill="none" stroke="#000000" points="854,-470 854,-502 915,-502 915,-470 854,-470"/>
<text text-anchor="start" x="863.6685" y="-483" font-family="Helvetica,sans-Serif" font-size="10.00" fill="#000000">2DFrame</text>
<polygon fill="none" stroke="#000000" points="854,-450 854,-470 915,-470 915,-450 854,-450"/>
<polygon fill="none" stroke="#000000" points="854,-430 854,-450 915,-450 915,-430 854,-430"/>
</g>
<!-- A1&#45;&gt;A19 -->
<g id="edge17" class="edge">
<title>A1&#45;&gt;A19</title>
<path fill="none" stroke="#000000" d="M884,-595.881C884,-561.8047 884,-527.1348 884,-502.1961"/>
<polygon fill="none" stroke="#000000" points="880.5001,-595.945 884,-605.945 887.5001,-595.9451 880.5001,-595.945"/>
</g>
<!-- A20 -->
<g id="node21" class="node">
<title>A20</title>
<polygon fill="none" stroke="#000000" points="933,-494 933,-526 1007,-526 1007,-494 933,-494"/>
<text text-anchor="start" x="949.1685" y="-507" font-family="Helvetica,sans-Serif" font-size="10.00" fill="#000000">3DFrame</text>
<polygon fill="none" stroke="#000000" points="933,-426 933,-494 1007,-494 1007,-426 933,-426"/>
<text text-anchor="start" x="946.11" y="-475" font-family="Helvetica,sans-Serif" font-size="10.00" fill="#000000">&#45;viewpoint:</text>
<text text-anchor="start" x="958.608" y="-463" font-family="Helvetica,sans-Serif" font-size="10.00" fill="#000000">float*</text>
<text text-anchor="start" x="942.7755" y="-451" font-family="Helvetica,sans-Serif" font-size="10.00" fill="#000000">&#45;lightsource:</text>
<text text-anchor="start" x="958.608" y="-439" font-family="Helvetica,sans-Serif" font-size="10.00" fill="#000000">float*</text>
<polygon fill="none" stroke="#000000" points="933,-406 933,-426 1007,-426 1007,-406 933,-406"/>
</g>
<!-- A1&#45;&gt;A20 -->
<g id="edge18" class="edge">
<title>A1&#45;&gt;A20</title>
<path fill="none" stroke="#000000" d="M924.8245,-596.2736C933.2688,-571.9224 941.8254,-547.2478 949.1869,-526.0191"/>
<polygon fill="none" stroke="#000000" points="921.4403,-595.3502 921.4707,-605.945 928.0539,-597.6437 921.4403,-595.3502"/>
</g>
<!-- A2 -->
<g id="node3" class="node">
<title>A2</title>
<polygon fill="#fff8dc" stroke="#000000" points="1130.571,-802 949.429,-802 949.429,-626 1136.571,-626 1136.571,-796 1130.571,-802"/>
<polyline fill="none" stroke="#000000" points="1130.571,-802 1130.571,-796 "/>
<polyline fill="none" stroke="#000000" points="1136.571,-796 1130.571,-796 "/>
<text text-anchor="middle" x="1043" y="-789" font-family="Helvetica,sans-Serif" font-size="10.00" fill="#000000">화면상에 그려지는 모든 object</text>
<text text-anchor="middle" x="1043" y="-765" font-family="Helvetica,sans-Serif" font-size="10.00" fill="#000000"> root 프레임을 선언 후 내부에</text>
<text text-anchor="middle" x="1043" y="-753" font-family="Helvetica,sans-Serif" font-size="10.00" fill="#000000">다른 프레임을 추가해 좌표시스템에서</text>
<text text-anchor="middle" x="1043" y="-741" font-family="Helvetica,sans-Serif" font-size="10.00" fill="#000000">오는 혼란 최소화. </text>
<text text-anchor="middle" x="1043" y="-729" font-family="Helvetica,sans-Serif" font-size="10.00" fill="#000000"> 모든</text>
<text text-anchor="middle" x="1043" y="-717" font-family="Helvetica,sans-Serif" font-size="10.00" fill="#000000">Object들은 프레임에 등록되어야</text>
<text text-anchor="middle" x="1043" y="-705" font-family="Helvetica,sans-Serif" font-size="10.00" fill="#000000">함.</text>
<text text-anchor="middle" x="1043" y="-693" font-family="Helvetica,sans-Serif" font-size="10.00" fill="#000000">coordspec은 xyz</text>
<text text-anchor="middle" x="1043" y="-681" font-family="Helvetica,sans-Serif" font-size="10.00" fill="#000000">좌표의 min/max 를</text>
<text text-anchor="middle" x="1043" y="-669" font-family="Helvetica,sans-Serif" font-size="10.00" fill="#000000">나타냄.</text>
<text text-anchor="middle" x="1043" y="-657" font-family="Helvetica,sans-Serif" font-size="10.00" fill="#000000">object나 frame을</text>
<text text-anchor="middle" x="1043" y="-645" font-family="Helvetica,sans-Serif" font-size="10.00" fill="#000000">등록할 때 크기 테스트를 통과한</text>
<text text-anchor="middle" x="1043" y="-633" font-family="Helvetica,sans-Serif" font-size="10.00" fill="#000000">객체만 허용.</text>
</g>
<!-- A4 -->
<g id="node5" class="node">
<title>A4</title>
<polygon fill="none" stroke="#000000" points="254,-282 254,-326 380,-326 380,-282 254,-282"/>
<text text-anchor="start" x="287.54" y="-307" font-family="Helvetica,sans-Serif" font-size="10.00" fill="#000000">&lt;&lt;abstract&gt;&gt;</text>
<text text-anchor="start" x="296.7135" y="-295" font-family="Helvetica,sans-Serif" font-size="10.00" fill="#000000">PhyState</text>
<polygon fill="none" stroke="#000000" points="254,-190 254,-282 380,-282 380,-190 254,-190"/>
<text text-anchor="start" x="299.214" y="-263" font-family="Helvetica,sans-Serif" font-size="10.00" fill="#000000">#angle :</text>
<text text-anchor="start" x="307.5525" y="-251" font-family="Helvetica,sans-Serif" font-size="10.00" fill="#000000">float</text>
<text text-anchor="start" x="294.774" y="-239" font-family="Helvetica,sans-Serif" font-size="10.00" fill="#000000">#velocity :</text>
<text text-anchor="start" x="307.5525" y="-227" font-family="Helvetica,sans-Serif" font-size="10.00" fill="#000000">float</text>
<text text-anchor="start" x="296.72" y="-215" font-family="Helvetica,sans-Serif" font-size="10.00" fill="#000000">#friction :</text>
<text text-anchor="start" x="306.163" y="-203" font-family="Helvetica,sans-Serif" font-size="10.00" fill="#000000">float </text>
<polygon fill="none" stroke="#000000" points="254,-122 254,-190 380,-190 380,-122 254,-122"/>
<text text-anchor="start" x="279.0735" y="-171" font-family="Helvetica,sans-Serif" font-size="10.00" fill="#000000">+setAngle(float) :</text>
<text text-anchor="start" x="307.8315" y="-159" font-family="Helvetica,sans-Serif" font-size="10.00" fill="#000000">void</text>
<text text-anchor="start" x="263.796" y="-147" font-family="Helvetica,sans-Serif" font-size="10.00" fill="#000000">+setVelocity(float) : void</text>
<text text-anchor="start" x="264.9115" y="-135" font-family="Helvetica,sans-Serif" font-size="10.00" fill="#000000">+setFriction(float) : void</text>
</g>
<!-- A3&#45;&gt;A4 -->
<g id="edge10" class="edge">
<title>A3&#45;&gt;A4</title>
<path fill="none" stroke="#000000" d="M651.3274,-444.5728C574.1194,-423.9606 466.7654,-386.7929 389,-326 385.9262,-323.597 382.9286,-321.0277 380.0119,-318.3273"/>
<polygon fill="#000000" stroke="#000000" points="651.3617,-444.5817 658.1784,-442.2296 662.9714,-447.6173 656.1547,-449.9694 651.3617,-444.5817"/>
</g>
<!-- A13 -->
<g id="node14" class="node">
<title>A13</title>
<polygon fill="none" stroke="#000000" points="398,-276 398,-308 826,-308 826,-276 398,-276"/>
<text text-anchor="start" x="589.2195" y="-289" font-family="Helvetica,sans-Serif" font-size="10.00" fill="#000000">BallObject</text>
<polygon fill="none" stroke="#000000" points="398,-232 398,-276 826,-276 826,-232 398,-232"/>
<text text-anchor="start" x="596.723" y="-257" font-family="Helvetica,sans-Serif" font-size="10.00" fill="#000000">&#45;radius</text>
<text text-anchor="start" x="599.5025" y="-245" font-family="Helvetica,sans-Serif" font-size="10.00" fill="#000000">&#45;color</text>
<polygon fill="none" stroke="#000000" points="398,-140 398,-232 826,-232 826,-140 398,-140"/>
<text text-anchor="start" x="577.692" y="-213" font-family="Helvetica,sans-Serif" font-size="10.00" fill="#000000">+drawObject() :</text>
<text text-anchor="start" x="602.8315" y="-201" font-family="Helvetica,sans-Serif" font-size="10.00" fill="#000000">void</text>
<text text-anchor="start" x="447.384" y="-189" font-family="Helvetica,sans-Serif" font-size="10.00" fill="#000000">+applyPhysics(float* coordspec, float collisionradius, float* position) : float*</text>
<text text-anchor="start" x="407.6485" y="-177" font-family="Helvetica,sans-Serif" font-size="10.00" fill="#000000">+applyPhysics(float* coordspec, float collisionradius, float* position, float* destination) : float*</text>
<text text-anchor="start" x="497.945" y="-165" font-family="Helvetica,sans-Serif" font-size="10.00" fill="#000000">+applyPhysics(float* position, float* pinpoint) : float*</text>
<text text-anchor="start" x="458.2095" y="-153" font-family="Helvetica,sans-Serif" font-size="10.00" fill="#000000">+applyPhysics(float* position, float* pinpoint, float* destination) : float*</text>
</g>
<!-- A3&#45;&gt;A13 -->
<g id="edge11" class="edge">
<title>A3&#45;&gt;A13</title>
<path fill="none" stroke="#000000" d="M692.9447,-366.9827C681.8941,-347.4626 670.3964,-327.1527 659.6546,-308.1781"/>
<polygon fill="none" stroke="#000000" points="690.0139,-368.9101 697.9863,-375.8881 696.1055,-365.4616 690.0139,-368.9101"/>
</g>
<!-- A14 -->
<g id="node15" class="node">
<title>A14</title>
<polygon fill="none" stroke="#000000" points="845,-228 845,-260 928,-260 928,-228 845,-228"/>
<text text-anchor="start" x="854.546" y="-241" font-family="Helvetica,sans-Serif" font-size="10.00" fill="#000000">ShooterObject</text>
<polygon fill="none" stroke="#000000" points="845,-208 845,-228 928,-228 928,-208 845,-208"/>
<polygon fill="none" stroke="#000000" points="845,-188 845,-208 928,-208 928,-188 845,-188"/>
</g>
<!-- A3&#45;&gt;A14 -->
<g id="edge12" class="edge">
<title>A3&#45;&gt;A14</title>
<path fill="none" stroke="#000000" d="M811.281,-367.003C819.4462,-353.3372 827.5546,-339.3968 835,-326 846.9259,-304.5411 859.2642,-279.9394 868.8173,-260.2741"/>
<polygon fill="none" stroke="#000000" points="808.0642,-365.5609 805.9134,-375.9352 814.0642,-369.1665 808.0642,-365.5609"/>
</g>
<!-- A15 -->
<g id="node16" class="node">
<title>A15</title>
<polygon fill="none" stroke="#000000" points="946,-228 946,-260 1018,-260 1018,-228 946,-228"/>
<text text-anchor="start" x="955.8895" y="-241" font-family="Helvetica,sans-Serif" font-size="10.00" fill="#000000">DrawObject</text>
<polygon fill="none" stroke="#000000" points="946,-208 946,-228 1018,-228 1018,-208 946,-208"/>
<polygon fill="none" stroke="#000000" points="946,-188 946,-208 1018,-208 1018,-188 946,-188"/>
</g>
<!-- A3&#45;&gt;A15 -->
<g id="edge13" class="edge">
<title>A3&#45;&gt;A15</title>
<path fill="none" stroke="#000000" d="M843.1727,-376.603C843.4485,-376.4012 843.7243,-376.2002 844,-376 881.6555,-348.6542 904.3355,-360.1041 936,-326 953.1828,-307.4934 964.7765,-281.4794 972.0265,-260.3552"/>
<polygon fill="none" stroke="#000000" points="841.0471,-373.8222 835.1777,-382.6428 845.2666,-379.4076 841.0471,-373.8222"/>
</g>
<!-- A5 -->
<g id="node6" class="node">
<title>A5</title>
<polygon fill="none" stroke="#000000" points="11,-40 11,-72 44,-72 44,-40 11,-40"/>
<text text-anchor="start" x="20.836" y="-53" font-family="Helvetica,sans-Serif" font-size="10.00" fill="#000000">Fly</text>
<polygon fill="none" stroke="#000000" points="11,-20 11,-40 44,-40 44,-20 11,-20"/>
<polygon fill="none" stroke="#000000" points="11,0 11,-20 44,-20 44,0 11,0"/>
</g>
<!-- A4&#45;&gt;A5 -->
<g id="edge2" class="edge">
<title>A4&#45;&gt;A5</title>
<path fill="none" stroke="#000000" d="M245.0235,-187.1359C192.4344,-158.7541 120.5579,-116.8862 63,-72 60.0726,-69.7171 57.1368,-67.2143 54.2741,-64.6251"/>
<polygon fill="none" stroke="#000000" points="243.4836,-190.2816 253.9503,-191.9243 246.7925,-184.113 243.4836,-190.2816"/>
</g>
<!-- A6 -->
<g id="node7" class="node">
<title>A6</title>
<polygon fill="none" stroke="#000000" points="72,-40 72,-72 146,-72 146,-40 72,-40"/>
<text text-anchor="start" x="81.771" y="-53" font-family="Helvetica,sans-Serif" font-size="10.00" fill="#000000">SelfRotation</text>
<polygon fill="none" stroke="#000000" points="72,-20 72,-40 146,-40 146,-20 72,-20"/>
<polygon fill="none" stroke="#000000" points="72,0 72,-20 146,-20 146,0 72,0"/>
</g>
<!-- A4&#45;&gt;A6 -->
<g id="edge3" class="edge">
<title>A4&#45;&gt;A6</title>
<path fill="none" stroke="#000000" d="M246.2314,-160.0361C212.6914,-129.7211 173.9987,-94.7488 146.2659,-69.6827"/>
<polygon fill="none" stroke="#000000" points="243.9803,-162.7192 253.746,-166.8281 248.6741,-157.5261 243.9803,-162.7192"/>
</g>
<!-- A7 -->
<g id="node8" class="node">
<title>A7</title>
<polygon fill="none" stroke="#000000" points="165,-40 165,-72 236,-72 236,-40 165,-40"/>
<text text-anchor="start" x="174.6605" y="-53" font-family="Helvetica,sans-Serif" font-size="10.00" fill="#000000">PinRotation</text>
<polygon fill="none" stroke="#000000" points="165,-20 165,-40 236,-40 236,-20 165,-20"/>
<polygon fill="none" stroke="#000000" points="165,0 165,-20 236,-20 236,0 165,0"/>
</g>
<!-- A4&#45;&gt;A7 -->
<g id="edge4" class="edge">
<title>A4&#45;&gt;A7</title>
<path fill="none" stroke="#000000" d="M248.3779,-113.7354C239.0948,-98.819 230.1624,-84.466 222.5544,-72.2413"/>
<polygon fill="none" stroke="#000000" points="245.6215,-115.9305 253.8768,-122.5713 251.5646,-112.2319 245.6215,-115.9305"/>
</g>
<!-- A8 -->
<g id="node9" class="node">
<title>A8</title>
<polygon fill="none" stroke="#000000" points="259,-40 259,-72 304,-72 304,-40 259,-40"/>
<text text-anchor="start" x="268.9975" y="-53" font-family="Helvetica,sans-Serif" font-size="10.00" fill="#000000">Static</text>
<polygon fill="none" stroke="#000000" points="259,-20 259,-40 304,-40 304,-20 259,-20"/>
<polygon fill="none" stroke="#000000" points="259,0 259,-20 304,-20 304,0 259,0"/>
</g>
<!-- A4&#45;&gt;A8 -->
<g id="edge5" class="edge">
<title>A4&#45;&gt;A8</title>
<path fill="none" stroke="#000000" d="M295.52,-111.8269C292.7968,-97.6057 290.1841,-83.9614 287.9442,-72.2639"/>
<polygon fill="none" stroke="#000000" points="292.1014,-112.5845 297.4198,-121.7477 298.9765,-111.2679 292.1014,-112.5845"/>
</g>
<!-- A9 -->
<g id="node10" class="node">
<title>A9</title>
<polygon fill="none" stroke="#000000" points="327,-40 327,-72 380,-72 380,-40 327,-40"/>
<text text-anchor="start" x="336.828" y="-53" font-family="Helvetica,sans-Serif" font-size="10.00" fill="#000000">FSBoth</text>
<polygon fill="none" stroke="#000000" points="327,-20 327,-40 380,-40 380,-20 327,-20"/>
<polygon fill="none" stroke="#000000" points="327,0 327,-20 380,-20 380,0 327,0"/>
</g>
<!-- A4&#45;&gt;A9 -->
<g id="edge6" class="edge">
<title>A4&#45;&gt;A9</title>
<path fill="none" stroke="#000000" d="M338.48,-111.8269C341.2032,-97.6057 343.8159,-83.9614 346.0558,-72.2639"/>
<polygon fill="none" stroke="#000000" points="335.0235,-111.2679 336.5802,-121.7477 341.8986,-112.5845 335.0235,-111.2679"/>
</g>
<!-- A10 -->
<g id="node11" class="node">
<title>A10</title>
<polygon fill="none" stroke="#000000" points="399,-40 399,-72 452,-72 452,-40 399,-40"/>
<text text-anchor="start" x="408.548" y="-53" font-family="Helvetica,sans-Serif" font-size="10.00" fill="#000000">SPBoth</text>
<polygon fill="none" stroke="#000000" points="399,-20 399,-40 452,-40 452,-20 399,-20"/>
<polygon fill="none" stroke="#000000" points="399,0 399,-20 452,-20 452,0 399,0"/>
</g>
<!-- A4&#45;&gt;A10 -->
<g id="edge7" class="edge">
<title>A4&#45;&gt;A10</title>
<path fill="none" stroke="#000000" d="M380.7321,-113.059C389.1564,-98.3945 397.2539,-84.2988 404.1675,-72.2639"/>
<polygon fill="none" stroke="#000000" points="377.6871,-111.3332 375.7407,-121.7477 383.7568,-114.8201 377.6871,-111.3332"/>
</g>
<!-- A11 -->
<g id="node12" class="node">
<title>A11</title>
<polygon fill="none" stroke="#000000" points="471,-40 471,-72 524,-72 524,-40 471,-40"/>
<text text-anchor="start" x="480.828" y="-53" font-family="Helvetica,sans-Serif" font-size="10.00" fill="#000000">FPBoth</text>
<polygon fill="none" stroke="#000000" points="471,-20 471,-40 524,-40 524,-20 471,-20"/>
<polygon fill="none" stroke="#000000" points="471,0 471,-20 524,-20 524,0 471,0"/>
</g>
<!-- A4&#45;&gt;A11 -->
<g id="edge8" class="edge">
<title>A4&#45;&gt;A11</title>
<path fill="none" stroke="#000000" d="M387.3597,-123.6454C387.9051,-123.0925 388.4519,-122.5439 389,-122 416.6539,-94.5575 431.1069,-96.9846 461,-72 463.9841,-69.5059 467.0058,-66.8057 469.9642,-64.0439"/>
<polygon fill="none" stroke="#000000" points="384.6766,-121.3888 380.3527,-131.0611 389.7646,-126.1963 384.6766,-121.3888"/>
</g>
<!-- A12 -->
<g id="node13" class="node">
<title>A12</title>
<polygon fill="none" stroke="#000000" points="554,-40 554,-72 585,-72 585,-40 554,-40"/>
<text text-anchor="start" x="563.9465" y="-53" font-family="Helvetica,sans-Serif" font-size="10.00" fill="#000000">All</text>
<polygon fill="none" stroke="#000000" points="554,-20 554,-40 585,-40 585,-20 554,-20"/>
<polygon fill="none" stroke="#000000" points="554,0 554,-20 585,-20 585,0 554,0"/>
</g>
<!-- A4&#45;&gt;A12 -->
<g id="edge9" class="edge">
<title>A4&#45;&gt;A12</title>
<path fill="none" stroke="#000000" d="M388.1739,-122.6273C388.4486,-122.4168 388.724,-122.2077 389,-122 443.1309,-81.2609 475.5927,-107.9754 533,-72 535.9959,-70.1226 538.9345,-67.9529 541.7605,-65.6283"/>
<polygon fill="none" stroke="#000000" points="385.853,-120.005 380.3912,-129.0836 390.3223,-125.3926 385.853,-120.005"/>
</g>
<!-- A16 -->
<g id="node17" class="node">
<title>A16</title>
<polygon fill="none" stroke="#000000" points="856,-40 856,-72 924,-72 924,-40 856,-40"/>
<text text-anchor="start" x="865.829" y="-53" font-family="Helvetica,sans-Serif" font-size="10.00" fill="#000000">TextObject</text>
<polygon fill="none" stroke="#000000" points="856,-20 856,-40 924,-40 924,-20 856,-20"/>
<polygon fill="none" stroke="#000000" points="856,0 856,-20 924,-20 924,0 856,0"/>
</g>
<!-- A15&#45;&gt;A16 -->
<g id="edge14" class="edge">
<title>A15&#45;&gt;A16</title>
<path fill="none" stroke="#000000" d="M962.1848,-178.3123C954.2983,-160.6018 944.9758,-140.2349 936,-122 927.8492,-105.4413 918.3,-87.3924 910.0209,-72.1243"/>
<polygon fill="none" stroke="#000000" points="959.158,-180.1213 966.4072,-187.8478 965.5586,-177.287 959.158,-180.1213"/>
</g>
<!-- A17 -->
<g id="node18" class="node">
<title>A17</title>
<polygon fill="none" stroke="#000000" points="942,-40 942,-72 1022,-72 1022,-40 942,-40"/>
<text text-anchor="start" x="951.9955" y="-53" font-family="Helvetica,sans-Serif" font-size="10.00" fill="#000000">PictureObject</text>
<polygon fill="none" stroke="#000000" points="942,-20 942,-40 1022,-40 1022,-20 942,-20"/>
<polygon fill="none" stroke="#000000" points="942,0 942,-20 1022,-20 1022,0 942,0"/>
</g>
<!-- A15&#45;&gt;A17 -->
<g id="edge15" class="edge">
<title>A15&#45;&gt;A17</title>
<path fill="none" stroke="#000000" d="M982,-177.5766C982,-145.0282 982,-102.1447 982,-72.137"/>
<polygon fill="none" stroke="#000000" points="978.5001,-177.7517 982,-187.7517 985.5001,-177.7517 978.5001,-177.7517"/>
</g>
<!-- A18 -->
<g id="node19" class="node">
<title>A18</title>
<polygon fill="none" stroke="#000000" points="1040,-40 1040,-72 1122,-72 1122,-40 1040,-40"/>
<text text-anchor="start" x="1049.6055" y="-53" font-family="Helvetica,sans-Serif" font-size="10.00" fill="#000000">TextureObject</text>
<polygon fill="none" stroke="#000000" points="1040,-20 1040,-40 1122,-40 1122,-20 1040,-20"/>
<polygon fill="none" stroke="#000000" points="1040,0 1040,-20 1122,-20 1122,0 1040,0"/>
</g>
<!-- A15&#45;&gt;A18 -->
<g id="edge16" class="edge">
<title>A15&#45;&gt;A18</title>
<path fill="none" stroke="#000000" d="M1005.7813,-178.8395C1022.9985,-146.1443 1045.9632,-102.5344 1061.9704,-72.137"/>
<polygon fill="none" stroke="#000000" points="1002.6508,-177.2727 1001.0882,-187.7517 1008.8445,-180.5343 1002.6508,-177.2727"/>
</g>
</g>
</svg>
